<?xml version="1.0" encoding="UTF-8" standalone="no"?>
<!-- Generator: Adobe Illustrator 16.0.0, SVG Export Plug-In . SVG Version: 6.00 Build 0)  -->

<svg
   xmlns:dc="http://purl.org/dc/elements/1.1/"
   xmlns:cc="http://creativecommons.org/ns#"
   xmlns:rdf="http://www.w3.org/1999/02/22-rdf-syntax-ns#"
   xmlns:svg="http://www.w3.org/2000/svg"
   xmlns="http://www.w3.org/2000/svg"
   xmlns:sodipodi="http://sodipodi.sourceforge.net/DTD/sodipodi-0.dtd"
   xmlns:inkscape="http://www.inkscape.org/namespaces/inkscape"
   version="1.1"
   id="Layer_1"
   x="0px"
   y="0px"
   width="1980"
   height="800"
   viewBox="0 0 1980 800"
   enable-background="new 0 0 512 512"
   xml:space="preserve"
   inkscape:version="0.91 r13725"
   sodipodi:docname="clouds.svg"><metadata
     id="metadata9"><rdf:RDF><cc:Work
         rdf:about=""><dc:format>image/svg+xml</dc:format><dc:type
           rdf:resource="http://purl.org/dc/dcmitype/StillImage" /><dc:title></dc:title></cc:Work></rdf:RDF></metadata><defs
     id="defs7" /><sodipodi:namedview
     pagecolor="#ffffff"
     bordercolor="#666666"
     borderopacity="1"
     objecttolerance="10"
     gridtolerance="10"
     guidetolerance="10"
     inkscape:pageopacity="0"
     inkscape:pageshadow="2"
     inkscape:window-width="1920"
     inkscape:window-height="1018"
     id="namedview5"
     showgrid="false"
     inkscape:zoom="0.32593203"
     inkscape:cx="92.014162"
     inkscape:cy="360.26442"
     inkscape:window-x="1272"
     inkscape:window-y="-8"
     inkscape:window-maximized="1"
     inkscape:current-layer="Layer_1" /><path
     style="fill:#ffffff;fill-opacity:0.39215686;stroke:#808080;stroke-width:1.86021888;stroke-opacity:1"
     d="m 122.76425,675.09357 c -19.43312,-6.15252 -32.867982,-16.57497 -42.650859,-33.08756 -4.84094,-8.17105 -5.411081,-10.9684 -5.430112,-26.64252 -0.01863,-15.34285 0.6325,-18.74906 5.254811,-27.48913 10.92552,-20.65843 34.11935,-34.79152 59.27233,-36.11742 l 13.17441,-0.69447 -2.8997,-7.25352 c -1.59484,-3.98944 -2.9046,-12.82053 -2.91058,-19.62464 -0.0249,-28.26332 18.78446,-51.14944 49.60672,-60.35858 15.47365,-4.62324 34.16318,-3.96363 48.6527,1.71712 5.09286,1.9967 9.45765,3.4238 9.6995,3.17132 0.24184,-0.25249 2.44163,-3.97558 4.88843,-8.27353 9.19867,-16.1581 33.50493,-32.23582 55.5413,-36.73856 47.98519,-9.80491 96.29022,19.43172 104.62322,63.32322 1.84951,9.74168 1.67278,14.2183 -1.02754,26.0299 -1.79364,7.84569 -2.99143,14.40377 -2.66169,14.57351 0.32969,0.16973 5.45261,2.24768 11.38423,4.61766 15.51139,6.19757 28.90239,16.20209 37.53931,28.04591 30.21127,41.42879 9.05605,96.04985 -43.95236,113.48144 -11.3076,3.71847 -13.00067,3.75973 -151.1581,3.68371 -109.78503,-0.0603 -141.27017,-0.56689 -146.94602,-2.36386 z"
     id="path4137"
     inkscape:connector-curvature="0" /><path
     style="fill:#ffffff;fill-opacity:0.39215686;stroke:#808080;stroke-width:2.16949153;stroke-opacity:1"
     d="m 1162.5725,716.09916 c -21.3369,-7.62171 -36.0878,-20.533 -46.8291,-40.98873 -5.3152,-10.12226 -5.9412,-13.58761 -5.9621,-33.00465 -0.02,-19.00667 0.6945,-23.22627 5.7696,-34.05342 11.9959,-25.59158 37.4618,-43.0996 65.0789,-44.74212 l 14.465,-0.8603 -3.1837,-8.98564 c -1.7511,-4.9421 -3.1892,-15.88202 -3.1958,-24.31093 -0.027,-35.01248 20.6247,-63.36372 54.4664,-74.77196 16.9895,-5.72726 37.5099,-4.91013 53.4189,2.12716 5.5918,2.47351 10.3842,4.24139 10.6497,3.92861 0.2655,-0.31278 2.6808,-4.92492 5.3673,-10.2492 10.0998,-20.0166 36.7872,-39.93361 60.9823,-45.51158 52.6861,-12.14629 105.7232,24.07193 114.8726,78.44454 2.0306,12.06796 1.8366,17.61358 -1.1282,32.24575 -1.9694,9.7192 -3.2845,17.84332 -2.9225,18.05359 0.362,0.21027 5.9868,2.78443 12.4995,5.72035 17.0309,7.67752 31.7338,20.07108 41.2168,34.74316 33.1709,51.32181 9.9432,118.98616 -48.2581,140.58035 -12.4153,4.60642 -14.2743,4.65753 -165.9661,4.56337 -120.54,-0.0748 -155.1095,-0.70226 -161.3414,-2.92835 z"
     id="path4137-6"
     inkscape:connector-curvature="0" /><path
     style="fill:#ffffff;fill-opacity:0.39215686;stroke:#808080;stroke-width:2.16949153;stroke-opacity:1"
     d="m 908.41143,415.42297 c 21.33685,-7.62171 36.08785,-20.533 46.82909,-40.98873 5.31518,-10.12226 5.94117,-13.58761 5.96207,-33.00465 0.0204,-19.00667 -0.69447,-23.22627 -5.7696,-34.05342 -11.99582,-25.59158 -37.4618,-43.0996 -65.07886,-44.74212 l -14.46502,-0.8603 3.18376,-8.98564 c 1.75107,-4.9421 3.18915,-15.88202 3.19572,-24.31093 0.0273,-35.01248 -20.62467,-63.36372 -54.46642,-74.77196 -16.9895,-5.72726 -37.5099,-4.91013 -53.4189,2.12716 -5.5918,2.47351 -10.3841,4.24139 -10.6497,3.92861 -0.2655,-0.31278 -2.6808,-4.92492 -5.3673,-10.2492 -10.0998,-20.0166 -36.7872,-39.93361 -60.9823,-45.51158 -52.686,-12.146286 -105.7232,24.07193 -114.8725,78.44454 -2.0307,12.06796 -1.8367,17.61358 1.1282,32.24575 1.9693,9.7192 3.2845,17.84332 2.9224,18.05359 -0.362,0.21027 -5.9867,2.78443 -12.4995,5.72035 -17.0309,7.67752 -31.7337,20.07108 -41.2168,34.74316 -33.1708,51.32181 -9.9432,118.98616 48.2581,140.58035 12.4154,4.60642 14.2743,4.65753 165.9662,4.56337 120.53994,-0.0748 155.10948,-0.70226 161.34136,-2.92835 z"
     id="path4137-7"
     inkscape:connector-curvature="0" /><path
     style="fill:#ffffff;fill-opacity:0.39215686;stroke:#808080;stroke-width:1.59641135;stroke-opacity:1"
     d="m 1913.6565,235.62759 c 16.9369,-5.19905 28.646,-14.00631 37.1722,-27.9599 4.2191,-6.90476 4.716,-9.2686 4.7326,-22.51367 0.016,-12.96514 -0.5513,-15.84349 -4.5798,-23.22908 -9.5221,-17.45695 -29.7366,-29.3998 -51.6586,-30.52023 l -11.4821,-0.58684 2.5272,-6.12943 c 1.3899,-3.37119 2.5315,-10.8337 2.5367,-16.58337 0.022,-23.883276 -16.3715,-43.222689 -43.2346,-51.004664 -13.4859,-3.906772 -29.7747,-3.349378 -42.403,1.451013 -4.4387,1.687271 -8.2428,2.893206 -8.4536,2.679848 -0.2107,-0.213359 -2.128,-3.359467 -4.2605,-6.991352 -8.017,-13.654051 -29.2011,-27.240169 -48.4068,-31.045105 -41.8213,-8.285423 -83.9214,16.42034 -91.184,53.509875 -1.6119,8.231994 -1.4579,12.014863 0.8956,21.995991 1.5632,6.629824 2.6072,12.171574 2.3198,12.315014 -0.2874,0.14343 -4.7522,1.89936 -9.922,3.90206 -13.5188,5.23711 -25.1897,13.69121 -32.7172,23.69957 -26.3305,35.00847 -7.8928,81.16478 38.3065,95.89496 9.8552,3.14221 11.3307,3.17707 131.7414,3.11284 95.6827,-0.051 123.1234,-0.47903 128.0702,-1.99753 z"
     id="path4137-7-0"
     inkscape:connector-curvature="0" /></svg>