<?xml version="1.0" encoding="UTF-8" standalone="no"?>
<!-- Generator: Adobe Illustrator 15.0.2, SVG Export Plug-In . SVG Version: 6.00 Build 0)  -->

<svg
   xmlns:dc="http://purl.org/dc/elements/1.1/"
   xmlns:cc="http://creativecommons.org/ns#"
   xmlns:rdf="http://www.w3.org/1999/02/22-rdf-syntax-ns#"
   xmlns:svg="http://www.w3.org/2000/svg"
   xmlns="http://www.w3.org/2000/svg"
   xmlns:sodipodi="http://sodipodi.sourceforge.net/DTD/sodipodi-0.dtd"
   xmlns:inkscape="http://www.inkscape.org/namespaces/inkscape"
   version="1.1"
   id="Layer_1"
   x="0px"
   y="0px"
   width="1059.7px"
   height="146.512px"
   viewBox="0 0 1059.7 146.512"
   enable-background="new 0 0 1059.7 146.512"
   xml:space="preserve"
   inkscape:version="0.91 r13725"
   sodipodi:docname="skyline_gray.svg"><metadata
     id="metadata9"><rdf:RDF><cc:Work
         rdf:about=""><dc:format>image/svg+xml</dc:format><dc:type
           rdf:resource="http://purl.org/dc/dcmitype/StillImage" /><dc:title></dc:title></cc:Work></rdf:RDF></metadata><defs
     id="defs7" /><sodipodi:namedview
     pagecolor="#ffffff"
     bordercolor="#666666"
     borderopacity="1"
     objecttolerance="10"
     gridtolerance="10"
     guidetolerance="10"
     inkscape:pageopacity="0"
     inkscape:pageshadow="2"
     inkscape:window-width="1280"
     inkscape:window-height="1002"
     id="namedview5"
     showgrid="false"
     inkscape:zoom="1.3211287"
     inkscape:cx="465.11789"
     inkscape:cy="88.544734"
     inkscape:window-x="-8"
     inkscape:window-y="-8"
     inkscape:window-maximized="1"
     inkscape:current-layer="Layer_1" /><polygon
     fill-rule="evenodd"
     clip-rule="evenodd"
     points="1008.654,50.187 1010.004,51.047 1010.864,61.968 1014.299,67.366   1015.65,100.988 1023.871,105.774 1031.969,128.844 1048.534,142.217 1059.7,146.512 0,146.512 22.457,137.678 28.346,137.434   29.082,131.542 36.936,130.193 37.426,121.604 46.015,120.007 49.696,66.263 60.372,63.071 64.667,132.892 74.361,132.892   81.232,111.665 115.468,109.086 112.033,127.248 128.843,126.143 132.893,109.578 154.735,106.143 159.643,124.549 162.833,124.058   165.411,86.876 175.349,65.158 187.62,63.809 187.375,125.038 193.02,126.39 193.02,108.228 198.909,106.388 200.75,98.29   207.989,97.554 210.075,90.313 218.419,89.822 219.156,82.09 236.581,81.724 233.39,117.062 241.12,111.173 242.47,102.337   262.839,97.554 261.736,124.302 277.442,125.652 283.086,115.468 299.162,112.523 307.382,121.848 323.211,122.462 323.947,105.038   349.348,101.235 349.348,76.938 354.748,71.047 357.447,41.722 365.668,39.268 365.668,30.431 394.26,30.431 394.627,38.407   413.279,41.966 418.923,50.187 421.01,5.032 427.145,0 460.03,14.971 460.644,53.746 466.288,53.746 465.43,14.357 485.186,6.873   505.8,16.565 506.291,55.342 511.2,55.095 513.286,33.622 524.206,31.291 525.557,24.542 542.979,24.787 549.362,34.726   555.497,36.322 554.759,82.829 566.173,90.066 566.786,97.798 573.165,98.656 574.271,55.586 584.7,54.237 586.541,45.156   608.138,44.665 615.991,52.396 616.974,70.311 630.349,71.047 630.962,108.473 642.62,108.473 643.722,78.287 657.345,77.796   658.938,99.147 666.792,100.988 667.774,109.824 720.539,112.278 723.729,103.198 740.786,101.848 741.03,43.807 757.596,40.125   773.67,50.556 774.774,102.584 780.665,105.283 782.259,116.573 788.395,119.149 788.642,105.283 795.635,103.689 800.421,75.588   814.286,67.857 816.739,72.643 818.091,105.038 829.257,108.228 843.981,107.984 843.735,90.805 857.358,90.558 857.358,81.477   879.32,80.127 881.161,86.876 884.106,86.876 885.212,71.047 903.373,71.907 906.808,75.588 907.912,98.903 912.698,103.689   923.62,102.337 936.013,115.713 946.442,119.149 958.467,113.259 968.039,112.523 975.771,105.038 979.818,104.792 989.144,96.202   993.686,95.1 996.384,91.663 1002.274,91.418 1003.868,68.962 1007.061,62.213 "
     id="polygon3"
     style="fill:#555555;fill-opacity:1" /></svg>